<?xml version="1.0" encoding="UTF-8" standalone="no"?>
<svg width="18px" height="16px" viewBox="0 0 18 16" version="1.1" xmlns="http://www.w3.org/2000/svg" xmlns:xlink="http://www.w3.org/1999/xlink">
    <!-- Generator: Sketch 40 (33762) - http://www.bohemiancoding.com/sketch -->
    <title>Shape</title>
    <desc>Created with Sketch.</desc>
    <defs></defs>
    <g id="Page-1" stroke="none" stroke-width="1" fill="none" fill-rule="evenodd">
        <g id="Non-Modal-Created-Copy" transform="translate(-531.000000, -190.000000)" fill="#5F769E">
            <g id="Segments" transform="translate(21.000000, 173.000000)">
                <g id="Add-Segment" transform="translate(486.000000, 0.000000)">
                    <g id="add" transform="translate(24.604651, 17.000000)">
                        <path d="M16.5327696,9.09090909 C16.8439746,9.09090909 17.1162791,8.83636364 17.1162791,8.54545455 L17.1162791,7.45454545 C17.1162791,7.16363636 16.8439746,6.90909091 16.5327696,6.90909091 L10.1141649,6.90909091 C9.8807611,6.90909091 9.72515856,6.76363636 9.72515856,6.54545455 L9.72515856,0.545454545 C9.72515856,0.254545455 9.45285412,0 9.14164905,0 L7.97463002,0 C7.66342495,0 7.39112051,0.254545455 7.39112051,0.545454545 L7.39112051,6.54545455 C7.39112051,6.76363636 7.23551797,6.90909091 7.00211416,6.90909091 L0.583509514,6.90909091 C0.27230444,6.90909091 -4.54747351e-13,7.16363636 -4.54747351e-13,7.45454545 L-4.54747351e-13,8.54545455 C-4.54747351e-13,8.83636364 0.27230444,9.09090909 0.583509514,9.09090909 L7.00211416,9.09090909 C7.23551797,9.09090909 7.39112051,9.23636364 7.39112051,9.45454545 L7.39112051,15.4545455 C7.39112051,15.7454545 7.66342495,16 7.97463002,16 L9.14164905,16 C9.45285412,16 9.72515856,15.7454545 9.72515856,15.4545455 L9.72515856,9.45454545 C9.72515856,9.23636364 9.8807611,9.09090909 10.1141649,9.09090909 L16.5327696,9.09090909 Z" id="Shape"></path>
                    </g>
                </g>
            </g>
        </g>
    </g>
</svg>